<svg width="58" height="64" viewBox="0 0 58 64" fill="none" xmlns="http://www.w3.org/2000/svg">
<g clip-path="url(#clip0_61_209)">
<path d="M28.6637 0L28.5614 0.46054C28.3558 1.34335 27.9028 2.14924 27.2554 2.78368C26.608 3.41811 25.7931 3.85479 24.9063 4.04249L24.4385 4.14483L24.9063 4.24718C25.7882 4.45316 26.593 4.90648 27.2261 5.55391C27.8593 6.20135 28.2946 7.01601 28.481 7.90223L28.5833 8.37008L28.6857 7.90223C28.8916 7.02037 29.345 6.2156 29.9924 5.58241C30.6398 4.94922 31.4545 4.5139 32.3407 4.32758L32.8086 4.22524L32.3407 4.11559C31.4581 3.91126 30.6524 3.45846 30.0189 2.81075C29.3855 2.16304 28.9507 1.3475 28.7661 0.46054L28.6637 0Z" fill="#F7F8FC"/>
<path d="M45.1627 9.79555L45.0969 10.088C44.9688 10.6309 44.688 11.1258 44.2878 11.5144C43.8876 11.903 43.3845 12.169 42.8381 12.281L42.5457 12.3395L42.8308 12.4053C43.379 12.5327 43.8798 12.8134 44.2745 13.2146C44.6693 13.6159 44.9418 14.1211 45.0603 14.6714L45.1261 14.9565L45.1919 14.6714C45.32 14.1285 45.6007 13.6335 46.001 13.2449C46.4012 12.8563 46.9043 12.5904 47.4507 12.4784L47.7432 12.4126L47.4507 12.3468C46.9011 12.2249 46.3983 11.9469 46.0028 11.5462C45.6073 11.1455 45.3359 10.6391 45.2212 10.088L45.1627 9.79555Z" fill="#F7F8FC"/>
<path d="M12.8739 9.06453L12.8081 9.35693C12.68 9.89987 12.3992 10.3948 11.999 10.7834C11.5988 11.172 11.0957 11.438 10.5492 11.55L10.2568 11.6084L10.5492 11.6742C11.0975 11.8017 11.5983 12.0824 11.993 12.4836C12.3878 12.8849 12.6603 13.3901 12.7788 13.9404L12.8373 14.2255L12.9031 13.9404C13.0312 13.3974 13.3119 12.9025 13.7122 12.5139C14.1124 12.1253 14.6154 11.8593 15.1619 11.7473L15.4543 11.6815L15.1692 11.6158C14.6156 11.4976 14.1081 11.2213 13.7084 10.8203C13.3087 10.4194 13.0341 9.91099 12.9177 9.35693L12.8739 9.06453Z" fill="#F7F8FC"/>
<path d="M41.4272 18.6481C38.1371 15.3582 33.6748 13.5099 29.0219 13.5099C24.3691 13.5099 19.9068 15.3582 16.6167 18.6481C13.3268 21.9382 11.4785 26.4005 11.4785 31.0533C11.4785 35.7062 13.3268 40.1684 16.6167 43.4586L29.0439 55.8858L41.4711 43.4586C44.7552 40.1626 46.5956 35.6971 46.5873 31.0443C46.5791 26.3914 44.723 21.9324 41.4272 18.6481Z" fill="url(#paint0_linear_61_209)"/>
<path d="M33.365 42.005C39.7748 39.5969 43.0189 32.4487 40.6109 26.0389C38.2028 19.6291 31.0546 16.385 24.6448 18.793C18.235 21.201 14.9909 28.3493 17.3989 34.7591C19.8069 41.1689 26.9552 44.413 33.365 42.005Z" fill="white"/>
<path d="M35.843 30.8785C36.4354 27.2133 33.9444 23.7619 30.2792 23.1696C26.6141 22.5772 23.1627 25.0683 22.5703 28.7334C21.978 32.3985 24.469 35.8499 28.1341 36.4423C31.7993 37.0346 35.2507 34.5436 35.843 30.8785Z" fill="url(#paint1_linear_61_209)"/>
<path style="mix-blend-mode:multiply" opacity="0.56" d="M28.9999 64C44.9471 64 57.8749 62.4781 57.8749 60.6008C57.8749 58.7235 44.9471 57.2016 28.9999 57.2016C13.0527 57.2016 0.125 58.7235 0.125 60.6008C0.125 62.4781 13.0527 64 28.9999 64Z" fill="url(#paint2_radial_61_209)"/>
<g style="mix-blend-mode:multiply">
<path d="M41.4272 18.6481C38.1655 15.3897 33.7493 13.5507 29.1389 13.531V55.7615L41.4272 43.4586C44.7171 40.1684 46.5654 35.7062 46.5654 31.0533C46.5654 26.4005 44.7171 21.9382 41.4272 18.6481Z" fill="#E6E6E6"/>
</g>
</g>
<defs>
<linearGradient id="paint0_linear_61_209" x1="29" y1="16.3966" x2="29" y2="54.8039" gradientUnits="userSpaceOnUse">
<stop stop-color="#DF314B"/>
<stop offset="0.28" stop-color="#DB304A"/>
<stop offset="0.56" stop-color="#CF2E45"/>
<stop offset="0.83" stop-color="#BB293F"/>
<stop offset="1" stop-color="#AB2639"/>
</linearGradient>
<linearGradient id="paint1_linear_61_209" x1="29.1853" y1="15.7596" x2="29.2252" y2="54.2762" gradientUnits="userSpaceOnUse">
<stop stop-color="#DF314B"/>
<stop offset="0.28" stop-color="#DB304A"/>
<stop offset="0.56" stop-color="#CF2E45"/>
<stop offset="0.83" stop-color="#BB293F"/>
<stop offset="1" stop-color="#AB2639"/>
</linearGradient>
<radialGradient id="paint2_radial_61_209" cx="0" cy="0" r="1" gradientUnits="userSpaceOnUse" gradientTransform="translate(29.0877 60.9316) scale(28.8749 2.59874)">
<stop stop-color="#8F8F8F"/>
<stop offset="0.15" stop-color="#929292" stop-opacity="0.97"/>
<stop offset="0.32" stop-color="#9B9B9B" stop-opacity="0.87"/>
<stop offset="0.5" stop-color="#A9A9A9" stop-opacity="0.7"/>
<stop offset="0.69" stop-color="#BDBDBD" stop-opacity="0.47"/>
<stop offset="0.89" stop-color="#D6D6D6" stop-opacity="0.18"/>
<stop offset="0.99" stop-color="#E6E6E6" stop-opacity="0"/>
</radialGradient>
<clipPath id="clip0_61_209">
<rect width="57.7499" height="64" fill="white" transform="translate(0.125)"/>
</clipPath>
</defs>
</svg>
